<svg xmlns="http://www.w3.org/2000/svg" width="64" height="64" viewBox="0 0 64 64" fill="none"><path d="M27 8H14a6 6 0 0 0-6 6v13M37 8h13a6 6 0 0 1 6 6v13M8 37v13a6 6 0 0 0 6 6h13M56 37v13a6 6 0 0 1-6 6H37" stroke="#4768de" stroke-width="6" stroke-linecap="round"/><rect x="22" y="22" width="8" height="8" rx="2" fill="#4768de"/><rect x="35" y="22" width="8" height="8" rx="2" fill="#4768de" opacity=".65"/><rect x="22" y="35" width="8" height="8" rx="2" fill="#4768de" opacity=".65"/><rect x="35" y="35" width="8" height="8" rx="2" fill="#4768de"/></svg>
